<?xml version="1.0" encoding="UTF-8" standalone="no"?>
<!-- Created with Inkscape (http://www.inkscape.org/) -->

<svg
   xmlns:dc="http://purl.org/dc/elements/1.1/"
   xmlns:cc="http://creativecommons.org/ns#"
   xmlns:rdf="http://www.w3.org/1999/02/22-rdf-syntax-ns#"
   xmlns:svg="http://www.w3.org/2000/svg"
   xmlns="http://www.w3.org/2000/svg"
   xmlns:xlink="http://www.w3.org/1999/xlink"
   xmlns:sodipodi="http://sodipodi.sourceforge.net/DTD/sodipodi-0.dtd"
   xmlns:inkscape="http://www.inkscape.org/namespaces/inkscape"
   width="1537.5"
   height="146.875"
   id="svg2"
   sodipodi:version="0.32"
   inkscape:version="0.48.0 r9654"
   version="1.0"
   sodipodi:docname="APPRIS-Title-icons.svg"
   inkscape:output_extension="org.inkscape.output.svg.inkscape">
  <defs
     id="defs4">
    <inkscape:perspective
       sodipodi:type="inkscape:persp3d"
       inkscape:vp_x="0 : 526.18109 : 1"
       inkscape:vp_y="0 : 1000 : 0"
       inkscape:vp_z="744.09448 : 526.18109 : 1"
       inkscape:persp3d-origin="372.04724 : 350.78739 : 1"
       id="perspective10" />
    <linearGradient
       y2="269.10541"
       x2="120.72295"
       y1="255.70152"
       x1="111.26731"
       gradientUnits="userSpaceOnUse"
       id="linearGradient4392"
       xlink:href="#linearGradient4089"
       inkscape:collect="always" />
    <linearGradient
       y2="269.10541"
       x2="120.72295"
       y1="255.70152"
       x1="111.26731"
       gradientUnits="userSpaceOnUse"
       id="linearGradient4374"
       xlink:href="#linearGradient4089"
       inkscape:collect="always" />
    <linearGradient
       y2="267.63766"
       x2="125.11707"
       y1="244.12636"
       x1="125.95902"
       gradientTransform="translate(-42,-169)"
       gradientUnits="userSpaceOnUse"
       id="linearGradient4372"
       xlink:href="#linearGradient4192"
       inkscape:collect="always" />
    <linearGradient
       y2="269.10541"
       x2="120.72295"
       y1="255.70152"
       x1="111.26731"
       gradientUnits="userSpaceOnUse"
       id="linearGradient4353"
       xlink:href="#linearGradient4089"
       inkscape:collect="always" />
    <linearGradient
       y2="269.10541"
       x2="120.72295"
       y1="255.70152"
       x1="111.26731"
       gradientUnits="userSpaceOnUse"
       id="linearGradient4241"
       xlink:href="#linearGradient4089"
       inkscape:collect="always" />
    <linearGradient
       y2="269.10541"
       x2="120.72295"
       y1="255.70152"
       x1="111.26731"
       gradientUnits="userSpaceOnUse"
       id="linearGradient4210"
       xlink:href="#linearGradient4089"
       inkscape:collect="always" />
    <filter
       id="filter4141"
       inkscape:collect="always">
      <feGaussianBlur
         id="feGaussianBlur4143"
         stdDeviation="0.35044037"
         inkscape:collect="always" />
    </filter>
    <inkscape:perspective
       sodipodi:type="inkscape:persp3d"
       inkscape:vp_x="0 : 526.18109 : 1"
       inkscape:vp_y="0 : 1000 : 0"
       inkscape:vp_z="744.09448 : 526.18109 : 1"
       inkscape:persp3d-origin="372.04724 : 350.78739 : 1"
       id="perspective3547" />
    <inkscape:perspective
       id="perspective3448"
       inkscape:persp3d-origin="372.04724 : 350.78739 : 1"
       inkscape:vp_z="744.09448 : 526.18109 : 1"
       inkscape:vp_y="0 : 1000 : 0"
       inkscape:vp_x="0 : 526.18109 : 1"
       sodipodi:type="inkscape:persp3d" />
    <linearGradient
       id="linearGradient4089"
       inkscape:collect="always">
      <stop
         id="stop4091"
         offset="0"
         style="stop-color:#636a72;stop-opacity:1;" />
      <stop
         style="stop-color:#636a72;stop-opacity:1"
         offset="0.41579732"
         id="stop4097" />
      <stop
         id="stop4099"
         offset="0.51492357"
         style="stop-color:#c4c4c6;stop-opacity:1" />
      <stop
         id="stop4093"
         offset="1"
         style="stop-color:#e7e7e7;stop-opacity:1" />
    </linearGradient>
    <linearGradient
       id="linearGradient4192"
       inkscape:collect="always">
      <stop
         id="stop4194"
         offset="0"
         style="stop-color:#888a85;stop-opacity:1;" />
      <stop
         id="stop4196"
         offset="1"
         style="stop-color:#888a85;stop-opacity:0;" />
    </linearGradient>
    <linearGradient
       inkscape:collect="always"
       xlink:href="#linearGradient4192"
       id="linearGradient2626"
       gradientUnits="userSpaceOnUse"
       gradientTransform="matrix(1.4961402,0,0,1.4961402,455.28266,-68.78957)"
       x1="125.95902"
       y1="244.12636"
       x2="125.11707"
       y2="267.63766" />
    <linearGradient
       inkscape:collect="always"
       xlink:href="#linearGradient4089"
       id="linearGradient2640"
       gradientUnits="userSpaceOnUse"
       x1="111.26731"
       y1="255.70152"
       x2="120.72295"
       y2="269.10541" />
    <linearGradient
       inkscape:collect="always"
       xlink:href="#linearGradient4192"
       id="linearGradient2652"
       gradientUnits="userSpaceOnUse"
       gradientTransform="matrix(1.4961402,0,0,1.4961402,455.28266,-68.78957)"
       x1="125.95902"
       y1="244.12636"
       x2="125.11707"
       y2="267.63766" />
    <linearGradient
       inkscape:collect="always"
       xlink:href="#linearGradient4089"
       id="linearGradient2654"
       gradientUnits="userSpaceOnUse"
       x1="111.26731"
       y1="255.70152"
       x2="120.72295"
       y2="269.10541" />
    <linearGradient
       inkscape:collect="always"
       xlink:href="#linearGradient4192"
       id="linearGradient2457"
       gradientUnits="userSpaceOnUse"
       gradientTransform="translate(-42,-169)"
       x1="125.95902"
       y1="244.12636"
       x2="125.11707"
       y2="267.63766" />
    <linearGradient
       inkscape:collect="always"
       xlink:href="#linearGradient4089"
       id="linearGradient2459"
       gradientUnits="userSpaceOnUse"
       x1="111.26731"
       y1="255.70152"
       x2="120.72295"
       y2="269.10541" />
    <linearGradient
       inkscape:collect="always"
       xlink:href="#linearGradient4089"
       id="linearGradient2461"
       gradientUnits="userSpaceOnUse"
       x1="111.26731"
       y1="255.70152"
       x2="120.72295"
       y2="269.10541" />
    <linearGradient
       inkscape:collect="always"
       xlink:href="#linearGradient4089"
       id="linearGradient2463"
       gradientUnits="userSpaceOnUse"
       x1="111.26731"
       y1="255.70152"
       x2="120.72295"
       y2="269.10541" />
    <linearGradient
       inkscape:collect="always"
       xlink:href="#linearGradient4089"
       id="linearGradient2484"
       gradientUnits="userSpaceOnUse"
       x1="111.26731"
       y1="255.70152"
       x2="120.72295"
       y2="269.10541" />
    <linearGradient
       inkscape:collect="always"
       xlink:href="#linearGradient4192"
       id="linearGradient2486"
       gradientUnits="userSpaceOnUse"
       gradientTransform="translate(-42,-169)"
       x1="125.95902"
       y1="244.12636"
       x2="125.11707"
       y2="267.63766" />
    <linearGradient
       inkscape:collect="always"
       xlink:href="#linearGradient4089"
       id="linearGradient2488"
       gradientUnits="userSpaceOnUse"
       x1="111.26731"
       y1="255.70152"
       x2="120.72295"
       y2="269.10541" />
  </defs>
  <sodipodi:namedview
     id="base"
     pagecolor="#ffffff"
     bordercolor="#666666"
     borderopacity="1.0"
     gridtolerance="10000"
     guidetolerance="10"
     objecttolerance="10"
     inkscape:pageopacity="0.0"
     inkscape:pageshadow="2"
     inkscape:zoom="0.85958802"
     inkscape:cx="389.80773"
     inkscape:cy="327.01883"
     inkscape:document-units="px"
     inkscape:current-layer="layer1"
     showgrid="false"
     inkscape:window-width="1440"
     inkscape:window-height="856"
     inkscape:window-x="98"
     inkscape:window-y="0"
     inkscape:window-maximized="0" />
  <metadata
     id="metadata7">
    <rdf:RDF>
      <cc:Work
         rdf:about="">
        <dc:format>image/svg+xml</dc:format>
        <dc:type
           rdf:resource="http://purl.org/dc/dcmitype/StillImage" />
      </cc:Work>
    </rdf:RDF>
  </metadata>
  <g
     inkscape:label="Layer 1"
     inkscape:groupmode="layer"
     id="layer1"
     transform="translate(-5.6302471,-376.61224)">
    <g
       id="g2490"
       inkscape:export-filename="/Users/jmrodriguez/projects/Encode/Encode-repository/release_3c/web/img/APPRIS-icon2.png"
       inkscape:export-xdpi="12.53"
       inkscape:export-ydpi="12.53">
      <text
         inkscape:transform-center-y="-89.903577"
         inkscape:transform-center-x="108.08632"
         inkscape:export-ydpi="12.53"
         inkscape:export-xdpi="12.53"
         inkscape:export-filename="/Users/jmrodriguez/projects/Encode/Encode-repository/release_3c/web/img/APPRIS-icon2.png"
         id="text2411"
         y="516.74896"
         x="17.641966"
         style="font-size:200px;font-style:normal;font-variant:normal;font-weight:bold;font-stretch:normal;fill:#000000;fill-opacity:1;stroke:none;stroke-width:1px;stroke-linecap:butt;stroke-linejoin:miter;stroke-opacity:1;font-family:Wide Latin;-inkscape-font-specification:Wide Latin Bold"
         xml:space="preserve"><tspan
           y="516.74896"
           x="17.641966"
           id="tspan2413"
           sodipodi:role="line">APPRIS</tspan></text>
      <g
         transform="matrix(0.8711609,0,0,0.8711609,1171.2768,410.79856)"
         id="g4366">
        <path
           style="opacity:1;fill:#c4c4c4;fill-opacity:1;fill-rule:nonzero;stroke:url(#linearGradient2486);stroke-width:0.30000001;stroke-linecap:round;stroke-linejoin:round;stroke-miterlimit:4;stroke-dasharray:none;stroke-dashoffset:0;stroke-opacity:1"
           d="M 67.03125,72.53125 C 65.25,75.71875 63.46875,78.90625 61.6875,82.09375 C 59.375,79.625 57.0625,77.15625 54.75,74.6875 C 56.34375,78.90625 57.9375,83.125 59.53125,87.34375 C 58.02137,88.98338 54.40403,90.4936 53.980209,91.91595 C 55.896328,91.91337 58.88923,92.38025 57.508191,95.02224 C 56.959176,97.97665 59.09109,101.03511 58.86567,103.57111 C 57.190505,104.90605 56.282863,107.38657 59.3257,107.01914 C 61.14848,106.95458 63.61726,107.96489 62.19892,110.13541 C 61.71261,111.77433 60.58242,115.6002 63.62904,113.89556 C 66.1938,113.56203 69.19865,111.85363 71.51286,112.50749 C 72.65364,115.4126 71.00841,118.54164 71.35836,121.56205 C 72.20053,120.59041 72.86893,118.55639 73.66113,117.19263 C 74.63524,115.81633 75.00613,113.25342 76.38359,112.67059 C 78.9017,112.47195 82.56117,109.4855 83.75448,113.3749 C 84.21733,114.60443 85.78154,116.81351 85.47991,113.95167 C 84.87308,110.67409 86.07636,107.72144 88.48427,105.52125 C 89.26413,103.62215 92.28397,104.573 92.67557,104.41815 C 92.44542,103.50953 94.93602,104.64525 93.55085,103.34871 C 91.96874,102.63876 89.53366,99.58126 92.83421,99.64873 C 95.9933,99.65062 99.15282,99.55613 102.3125,99.5 C 98.82292,98.14583 95.33333,96.79167 91.84375,95.4375 C 92.40213,94.66406 95.24919,93.25838 92.67493,93.42115 C 91.8179,92.10601 96.35523,91.92132 97.47075,90.9481 C 98.33424,90.77398 100.67974,89.80681 98.39355,89.87695 C 95.86099,89.30167 92.49238,89.62517 90.48392,88.48646 C 90.58704,85.85321 93.38506,84.34758 94.14217,81.96059 C 91.94132,81.65394 89.47188,82.86055 87.13668,82.65339 C 85.90474,81.83777 89.31114,80.25358 90.25843,79.53165 C 91.12993,78.99273 93.47316,77.37151 91.13684,78.21225 C 88.90371,78.76652 86.74461,79.64038 84.51128,80.08298 C 82.46673,78.58798 83.68809,74.99372 81.81055,73.22266 C 80.09945,74.06493 78.05749,77.4569 76.50726,76.74367 C 76.70745,75.24249 75.29976,74.11475 74.22621,75.58338 C 73.89407,73.73986 73.36711,77.76001 71.99801,77.38054 C 69.27162,77.94801 68.94538,73.77457 67.03748,72.53953 L 67.03125,72.53125 z"
           id="path3557" />
        <g
           id="g4360">
          <path
             transform="matrix(1.5757642,0,0,1.3000055,-106.97188,-246.56668)"
             d="m 124.24876,261.91782 c 0,5.57891 -3.73115,10.10152 -8.33376,10.10152 -4.60261,0 -8.33376,-4.52261 -8.33376,-10.10152 0,-5.57892 3.73115,-10.10153 8.33376,-10.10153 4.60261,0 8.33376,4.52261 8.33376,10.10153 z"
             sodipodi:ry="10.101525"
             sodipodi:rx="8.3337584"
             sodipodi:cy="261.91782"
             sodipodi:cx="115.915"
             id="path3578"
             style="opacity:1;fill:url(#linearGradient2488);fill-opacity:1;fill-rule:nonzero;stroke:none;stroke-width:0.5;stroke-linecap:round;stroke-linejoin:round;stroke-miterlimit:4;stroke-dasharray:none;stroke-dashoffset:0;stroke-opacity:1;filter:url(#filter4141)"
             sodipodi:type="arc" />
          <path
             id="path3553"
             d="M 77.11128,83.85107 C 76.07689,84.73862 73.81011,87.38405 72.87497,85.15766 C 72.5197,86.883 71.96206,85.05143 71.87687,86.66128 C 71.06639,88.61956 67.19477,85.81527 68.56799,88.11579 C 68.42175,90.32515 66.62082,92.24579 66.13377,94.04306 C 67.28297,95.48225 66.96777,98.11066 68.45789,99.65003 C 69.02838,101.31533 71.55794,101.72051 73.1487,102.56258 C 75.1857,103.68578 77.62814,101.81343 79.49346,103.25714 C 80.84642,104.68977 78.66929,100.93039 80.78359,101.0828 C 83.30376,101.25354 82.05179,97.83792 84.67367,98.034 C 86.06999,98.01741 88.14787,97.91415 85.69181,97.35233 C 83.15357,96.56998 84.66043,93.26135 85.66394,92.92065 C 83.35041,92.97443 83.48715,89.16376 82.71839,88.77883 C 81.03473,88.90697 81.89649,86.29953 82.0899,86.6528 C 80.09375,87.61774 77.84561,86.43459 77.32057,84.8226 C 77.29006,84.49306 77.26287,84.1526 77.11128,83.85107 z"
             style="opacity:1;fill:#232126;fill-opacity:1;fill-rule:nonzero;stroke:none;stroke-width:0.5;stroke-linecap:round;stroke-linejoin:round;stroke-miterlimit:4;stroke-dasharray:none;stroke-dashoffset:0;stroke-opacity:1" />
        </g>
      </g>
      <g
         transform="matrix(0.5090544,0,0,0.5090544,184.37941,280.22352)"
         id="g2635">
        <path
           style="fill:#c4c4c4;fill-opacity:1;fill-rule:nonzero;stroke:none;stroke-width:10.30000019;stroke-linecap:round;stroke-linejoin:round;stroke-miterlimit:4;stroke-dasharray:none;stroke-dashoffset:0;stroke-opacity:1"
           d="M 880.6169,218.5552 C 881.5893,223.64064 890.00898,235.37198 879.0212,234.05002 C 874.86698,230.97711 866.78133,233.61703 873.6029,237.73918 C 879.60609,244.1096 869.66463,249.60283 872.63028,256.34098 C 871.18937,264.46602 861.31403,266.27373 855.14809,269.75404 C 853.7933,274.16071 862.53779,267.61561 865.33923,268.31182 C 867.49768,265.68888 868.94002,269.87548 871.97566,266.02925 C 879.13778,267.083 880.8304,276.52162 888.03597,278.51307 C 891.82673,281.67536 889.3326,294.03852 894.50889,292.10974 C 894.36467,286.13824 898.02465,278.09044 905.32019,280.35008 C 909.90637,278.90259 915.3402,275.01314 918.82143,278.84882 C 918.81093,272.51579 921.71093,264.91269 929.21382,264.89441 C 920.27145,259.11967 936.04454,254.57879 939.86818,251.84174 C 936.15515,248.17356 923.91841,252.71167 923.49261,243.06056 C 921.98788,236.46763 938.06422,242.57878 927.71285,238.77055 C 921.45126,238.47837 914.72814,234.26419 920.23487,227.92434 C 917.62775,222.47806 909.90959,234.46567 903.98144,229.57879 C 898.59868,224.22069 890.15352,233.99566 886.4787,224.98565 C 884.64231,222.74606 883.02893,220.23991 880.6169,218.5552 z M 894.40944,292.00633 C 895.08623,292.17879 894.46237,291.24626 894.40944,292.00633 z M 864.06585,265.35633 C 864.74373,264.34379 862.5532,265.30787 864.06585,265.35633 z M 872.94918,254.3223 L 872.52416,254.23913 L 872.94918,254.3223 z M 872.06085,252.03133 C 871.3787,251.94508 872.2007,252.56381 872.06085,252.03133 z M 897.96277,223.55791 C 898.06841,223.90894 898.06841,223.20689 897.96277,223.55791 z M 898.19654,223.55791 C 897.57439,223.97278 898.60851,223.59825 898.19654,223.55791 z M 897.44847,223.88519 C 896.25212,224.84214 898.0405,224.22955 897.44847,223.88519 z M 898.10304,224.35274 C 898.04201,224.87153 898.57062,223.70554 898.10304,224.35274 z M 889.78076,226.78397 C 889.71629,228.08149 890.64506,226.04498 889.78076,226.78397 z M 890.20155,227.158 C 890.36856,227.54516 890.47781,226.72544 890.20155,227.158 z M 890.71584,230.10353 C 891.43977,230.34741 890.30788,230.19885 890.71584,230.10353 z M 892.58602,230.47756 C 892.31463,230.68946 892.54803,230.02571 892.58602,230.47756 z M 894.5497,230.61783 C 894.9559,230.88557 894.19105,230.66702 894.5497,230.61783 z M 895.01725,231.31914 C 894.51239,231.52432 895.01752,230.47411 895.01725,231.31914 z M 894.22242,231.59967 C 893.75631,231.70673 894.43398,230.61208 894.22242,231.59967 z M 880.57014,233.42309 C 880.01445,234.14173 881.2516,233.45169 880.57014,233.42309 z M 884.02997,233.75037 L 883.93511,233.62092 L 884.02997,233.75037 z M 880.57014,234.0309 L 880.57014,233.93668 L 880.57014,234.0309 z M 922.97637,240.10896 C 922.00591,240.28614 924.01183,239.81297 922.97637,240.10896 z M 925.03356,240.52975 C 925.17271,241.22713 925.46403,239.99111 925.03356,240.52975 z M 870.93874,252.35861 C 872.05661,252.52064 869.25359,251.67343 870.93874,252.35861 z M 871.21927,252.49887 C 871.45465,252.99393 871.61724,251.70668 871.21927,252.49887 z M 872.29462,253.24695 C 872.84119,253.6669 872.38832,252.56348 872.29462,253.24695 z M 866.02953,263.53291 C 865.7822,264.06803 866.26279,263.01219 866.02953,263.53291 z M 862.85023,264.88879 C 864.00093,265.03007 862.61172,263.88549 862.85023,264.88879 z M 863.22427,264.84203 L 863.3222,264.73371 L 863.22427,264.84203 z M 863.55155,265.02905 C 863.78798,264.67515 863.06438,264.98485 863.55155,265.02905 z M 862.9905,265.44984 C 863.91182,266.19842 862.91292,264.38088 862.9905,265.44984 z M 930.92461,265.44984 C 931.32348,266.2767 931.53165,264.73016 930.92461,265.44984 z M 925.31408,265.73037 C 925.64853,266.33695 925.33772,265.00281 925.31408,265.73037 z M 933.82338,266.1044 C 934.44802,265.99185 933.48838,265.5154 933.82338,266.1044 z M 874.2583,266.05765 L 874.088,265.98538 L 874.2583,266.05765 z M 924.56601,266.33817 C 924.46149,267.32633 925.03296,266.40526 924.56601,266.33817 z M 876.26874,266.57194 C 875.8055,267.70026 875.82256,265.65258 876.26874,266.57194 z M 873.60374,266.85247 C 874.32814,267.53564 873.6285,266.30484 873.60374,266.85247 z M 868.9283,267.17975 C 869.51254,269.67793 867.70845,266.52987 868.9283,267.17975 z M 866.54383,268.53563 C 865.33065,271.12193 867.87653,267.99203 866.54383,268.53563 z M 866.59058,269.33045 C 866.5732,272.04619 868.30839,268.18137 866.59058,269.33045 z M 867.66593,269.37721 C 866.58277,270.18895 868.99196,269.64358 867.66593,269.37721 z M 852.9383,271.80843 C 853.50993,271.41998 851.68478,271.28339 852.9383,271.80843 z M 916.43075,278.96185 C 915.84898,279.85511 917.1055,278.45088 916.43075,278.96185 z M 920.1711,279.05536 C 919.62938,280.03299 920.5826,278.7874 920.1711,279.05536 z M 916.8983,279.4294 C 916.79378,280.41755 917.36524,279.49649 916.8983,279.4294 z M 920.40487,280.69177 C 919.4844,281.71659 921.25317,280.40083 920.40487,280.69177 z M 920.03084,281.25282 C 920.16139,282.11835 920.63748,280.60816 920.03084,281.25282 z"
           id="path4341" />
        <path
           sodipodi:type="arc"
           style="fill:url(#linearGradient2484);fill-opacity:1;fill-rule:nonzero;stroke:none;stroke-width:0.5;stroke-linecap:round;stroke-linejoin:round;stroke-miterlimit:4;stroke-dasharray:none;stroke-dashoffset:0;stroke-opacity:1;filter:url(#filter4141)"
           id="path4235"
           sodipodi:cx="115.915"
           sodipodi:cy="261.91782"
           sodipodi:rx="8.3337584"
           sodipodi:ry="10.101525"
           d="m 124.24876,261.91782 c 0,5.57891 -3.73115,10.10152 -8.33376,10.10152 -4.60261,0 -8.33376,-4.52261 -8.33376,-10.10152 0,-5.57892 3.73115,-10.10153 8.33376,-10.10153 4.60261,0 8.33376,4.52261 8.33376,10.10153 z"
           transform="matrix(2.3575641,0,0,1.9449905,626.25875,-253.66264)" />
        <path
           style="fill:#232126;fill-opacity:1;fill-rule:nonzero;stroke:none;stroke-width:10.30000019;stroke-linecap:round;stroke-linejoin:round;stroke-miterlimit:4;stroke-dashoffset:0;stroke-opacity:1"
           d="M 896.12681,241.37133 L 895.66497,243.95765 C 894.38824,244.38932 893.25753,245.04843 892.24734,245.89738 L 888.92208,245.62028 L 890.39996,247.83713 C 889.60631,248.9516 888.96588,250.25012 888.64496,251.62423 L 887.53655,252.36318 L 888.46023,252.64028 C 888.39867,253.10472 888.36786,253.54463 888.36786,254.02581 C 888.36786,258.46038 891.08101,262.28151 894.92601,263.90922 C 896.088,266.22704 898.50349,267.88107 901.29943,267.88107 C 905.22547,267.88107 908.4118,264.73611 908.4118,260.86107 C 908.4118,260.4065 908.31081,259.90611 908.22707,259.47554 C 909.18324,257.87244 909.79733,256.02604 909.79733,254.02581 C 909.79733,251.49917 908.86076,249.20758 907.39576,247.37528 L 907.8576,246.82107 L 907.02628,246.91344 C 906.0061,245.7734 904.75257,244.85574 903.33154,244.23475 L 903.79338,242.75686 L 901.76128,243.77291 C 900.88927,243.54337 900.02638,243.31106 899.0826,243.31106 C 898.46859,243.31106 897.8211,243.39643 897.23523,243.49581 L 896.12681,241.37133 z"
           id="path4219" />
      </g>
      <g
         transform="matrix(0.9274939,0,0,0.9274939,36.372726,283.60781)"
         id="g4346">
        <path
           style="opacity:1;fill:#c4c4c4;fill-opacity:1;fill-rule:nonzero;stroke:none;stroke-width:0.5;stroke-linecap:round;stroke-linejoin:round;stroke-miterlimit:4;stroke-dasharray:none;stroke-dashoffset:0;stroke-opacity:1"
           d="M 146.375,152.9375 L 151.0625,165.6875 C 150.30779,166.78193 149.66479,167.97612 149.15331,169.24862 C 149.02874,169.55856 147.22447,169.37313 147.11578,169.69205 C 147.00748,170.00984 148.5947,170.83194 148.50274,171.15803 C 148.12892,172.48365 147.8925,173.87534 147.8125,175.3125 L 140.75,178.59375 L 148.09375,179.96875 C 148.51191,182.2162 149.32681,184.3051 150.4375,186.15625 L 143,189.59375 L 156.4375,192.125 C 158.67123,193.41279 161.21142,194.15625 163.90625,194.15625 C 164.21684,194.15625 164.50623,194.11285 164.8125,194.09375 L 172.5,200.375 L 169.21875,193.15625 C 171.1141,192.42591 172.84569,191.31135 174.34375,189.90625 L 175.15625,190.0625 L 183.5,196.875 L 178.09375,184.90625 L 178.09375,184.875 C 178.53779,183.97563 178.88828,183.01584 179.1875,182.03125 L 181.75,184.125 L 179.71875,179.65625 C 179.89809,178.5967 180.03125,177.52275 180.03125,176.40625 C 180.03125,173.60125 179.42866,170.95313 178.375,168.59375 L 178.59375,167.9375 L 178.25,168.28125 C 177.24155,166.12911 175.83865,164.21601 174.15625,162.6875 L 176.84375,155.1875 L 171.25,160.59375 C 169.51148,159.61214 168.71796,158.78616 166.68658,158.5602 C 166.39661,158.52795 166.10434,152.8791 165.80997,152.86386 C 165.55197,152.8505 164.16735,158.65625 163.90625,158.65625 C 161.59208,158.65625 159.39641,159.18895 157.40625,160.15625 L 156.625,159.9375 L 146.375,152.9375 z"
           id="path4243"
           sodipodi:nodetypes="ccsssccccccscccccccccccsccccccsssccc" />
        <path
           sodipodi:type="arc"
           style="opacity:1;fill:url(#linearGradient2463);fill-opacity:1;fill-rule:nonzero;stroke:none;stroke-width:0.5;stroke-linecap:round;stroke-linejoin:round;stroke-miterlimit:4;stroke-dasharray:none;stroke-dashoffset:0;stroke-opacity:1;filter:url(#filter4141)"
           id="path4231"
           sodipodi:cx="115.915"
           sodipodi:cy="261.91782"
           sodipodi:rx="8.3337584"
           sodipodi:ry="10.101525"
           d="m 124.24876,261.91782 c 0,5.57891 -3.73115,10.10152 -8.33376,10.10152 -4.60261,0 -8.33376,-4.52261 -8.33376,-10.10152 0,-5.57892 3.73115,-10.10153 8.33376,-10.10153 4.60261,0 8.33376,4.52261 8.33376,10.10153 z"
           transform="matrix(1.5757642,0,0,1.3000055,-18.50957,-165.46781)" />
        <path
           style="opacity:1;fill:#2e3436;fill-opacity:1;fill-rule:nonzero;stroke:none;stroke-width:0.5;stroke-linecap:round;stroke-linejoin:round;stroke-miterlimit:4;stroke-dasharray:none;stroke-dashoffset:0;stroke-opacity:1"
           d="M 167.27196,183.72555 C 169.70694,183.09317 171.36807,181.21901 171.16682,179.45308 L 171.91865,179.61298 L 170.75952,178.0091 C 170.88238,177.76536 170.98577,177.50541 171.07851,177.24824 L 171.34405,177.27614 L 171.1009,177.21014 C 171.41527,176.31565 171.5502,175.34397 171.4616,174.3721 L 172.07872,173.88896 L 172.38001,173.68157 L 172.31951,173.69728 L 172.42479,173.60536 L 171.32453,173.47138 C 171.31188,173.41715 171.29933,173.37433 171.28526,173.32015 C 170.86362,171.69664 169.87471,170.33465 168.56675,169.44145 L 168.72548,168.56077 L 167.99522,169.10558 C 167.00139,168.55799 165.85091,168.25447 164.66737,168.22636 C 164.06981,168.2136 163.45303,168.27259 162.84237,168.40974 L 162.71903,168.18348 L 162.78187,168.42545 C 162.72913,168.43773 162.68333,168.45104 162.63064,168.46472 C 161.84476,168.66881 161.13048,168.99371 160.48665,169.40897 L 158.53678,168.3656 L 159.80904,169.90781 C 159.16584,170.43621 158.60686,171.05271 158.18864,171.74925 L 157.41324,171.49861 L 158.05429,171.97786 C 157.99684,172.08204 157.96489,172.19816 157.91326,172.30507 L 157.70821,172.26146 L 157.86847,172.38127 C 157.64449,172.8611 157.4612,173.35233 157.35149,173.87158 L 154.25179,174.74115 L 157.21868,175.10067 C 157.20722,175.69296 157.27679,176.319 157.4323,176.91782 C 157.48093,177.10509 157.54048,177.27516 157.60394,177.4544 L 156.24086,178.42185 L 157.89892,178.21725 C 158.32673,179.07152 158.93918,179.81517 159.66217,180.40683 L 159.3746,181.28868 L 160.33346,180.87823 C 160.56315,181.0244 160.80273,181.15176 161.04954,181.27342 L 160.90418,181.9569 L 161.20665,181.87835 L 160.47206,182.77943 L 161.83632,181.94083 C 162.5502,183.54292 164.86555,184.35049 167.27196,183.72555 z"
           id="path4214" />
        <path
           sodipodi:type="inkscape:offset"
           inkscape:radius="-1.8129114"
           inkscape:original="M 162.71875 168.1875 L 162.78125 168.4375 C 162.7285 168.44978 162.67769 168.45507 162.625 168.46875 C 161.83911 168.67284 161.14383 168.99099 160.5 169.40625 L 158.53125 168.375 L 159.8125 169.90625 C 159.1693 170.43465 158.60572 171.05346 158.1875 171.75 L 157.40625 171.5 L 158.0625 171.96875 C 158.00505 172.07293 157.95788 172.20559 157.90625 172.3125 L 157.71875 172.25 L 157.875 172.375 C 157.65102 172.85483 157.45346 173.35575 157.34375 173.875 L 154.25 174.75 L 157.21875 175.09375 C 157.2073 175.68603 157.28199 176.30743 157.4375 176.90625 C 157.48613 177.09352 157.53029 177.28951 157.59375 177.46875 L 156.25 178.40625 L 157.90625 178.21875 C 158.33405 179.07302 158.93326 179.81459 159.65625 180.40625 L 159.375 181.28125 L 160.34375 180.875 C 160.57343 181.02117 160.81569 181.15959 161.0625 181.28125 L 160.90625 181.96875 L 161.21875 181.875 L 160.46875 182.78125 L 161.84375 181.9375 C 162.55763 183.53959 164.87484 184.34369 167.28125 183.71875 C 169.71623 183.08636 171.3575 181.20343 171.15625 179.4375 L 171.90625 179.625 L 170.75 178 C 170.87286 177.75627 171.00101 177.50717 171.09375 177.25 L 171.34375 177.28125 L 171.09375 177.21875 C 171.40811 176.32426 171.55735 175.34687 171.46875 174.375 L 172.09375 173.875 L 172.375 173.6875 L 172.3125 173.6875 L 172.4375 173.59375 L 171.3125 173.46875 C 171.29986 173.41453 171.29532 173.36668 171.28125 173.3125 C 170.85961 171.689 169.87046 170.3307 168.5625 169.4375 L 168.71875 168.5625 L 168 169.09375 C 167.00617 168.54616 165.83979 168.24686 164.65625 168.21875 C 164.05869 168.20599 163.45441 168.2691 162.84375 168.40625 L 162.71875 168.1875 z "
           style="opacity:1;fill:#000000;fill-opacity:1;fill-rule:nonzero;stroke:none;stroke-width:0.5;stroke-linecap:round;stroke-linejoin:round;stroke-miterlimit:4;stroke-dasharray:none;stroke-dashoffset:0;stroke-opacity:1"
           id="path4302"
           d="M 164.625,170.03125 C 164.19104,170.02198 163.74659,170.0854 163.28125,170.1875 C 163.27083,170.18759 163.26042,170.18759 163.25,170.1875 C 163.22937,170.19832 163.20853,170.20874 163.1875,170.21875 C 162.99634,170.26325 162.98208,170.24774 163.09375,170.21875 C 163.08333,170.21884 163.07292,170.21884 163.0625,170.21875 C 162.48082,170.37295 161.9594,170.62104 161.46875,170.9375 C 161.37871,170.98706 161.28462,171.02888 161.1875,171.0625 C 161.17721,171.07304 161.16679,171.08346 161.15625,171.09375 C 161.09965,171.17152 161.03695,171.24467 160.96875,171.3125 C 160.46063,171.72993 160.04215,172.20093 159.75,172.6875 C 159.72139,172.74112 159.6901,172.79327 159.65625,172.84375 C 159.71043,172.74551 159.65023,172.84737 159.53125,173.09375 C 159.53161,173.11458 159.53161,173.13542 159.53125,173.15625 C 159.33899,173.56812 159.19246,173.93071 159.125,174.25 C 159.08713,174.38046 159.03472,174.50625 158.96875,174.625 C 158.96884,174.63542 158.96884,174.64583 158.96875,174.65625 C 159.00996,174.8091 159.03097,174.96669 159.03125,175.125 C 159.02322,175.54045 159.07319,175.99732 159.1875,176.4375 C 159.24636,176.66418 159.2995,176.83827 159.3125,176.875 C 159.34076,176.96694 159.36166,177.06099 159.375,177.15625 C 159.43378,177.2352 159.48604,177.31881 159.53125,177.40625 C 159.84365,178.03008 160.28415,178.56762 160.8125,179 C 160.87949,179.05784 160.94216,179.12051 161,179.1875 C 161.02103,179.19751 161.04187,179.20793 161.0625,179.21875 C 161.14893,179.25392 161.23251,179.29571 161.3125,179.34375 C 161.4924,179.45824 161.69534,179.56769 161.875,179.65625 C 162.15456,179.80133 162.39151,180.01674 162.5625,180.28125 C 162.97657,180.45662 163.3107,180.77961 163.5,181.1875 C 163.71204,181.66336 165.04633,182.42742 166.8125,181.96875 C 168.59189,181.50662 169.40303,180.17638 169.34375,179.65625 C 169.33379,179.49931 169.3443,179.34173 169.375,179.1875 L 169.28125,179.0625 C 168.88358,178.51555 168.82334,177.79273 169.125,177.1875 C 169.23209,176.97505 169.29753,176.8304 169.34375,176.71875 C 169.35331,176.68722 169.36373,176.65596 169.375,176.625 C 169.6119,175.95091 169.71816,175.21038 169.65625,174.53125 C 169.64536,174.41693 169.64536,174.30182 169.65625,174.1875 C 169.61567,174.08636 169.5843,173.98177 169.5625,173.875 C 169.51811,173.68458 169.5039,173.67592 169.53125,173.78125 C 169.22117,172.58732 168.48387,171.58804 167.53125,170.9375 C 167.48758,170.89789 167.44586,170.85617 167.40625,170.8125 C 167.38522,170.80249 167.36438,170.79207 167.34375,170.78125 C 167.26886,170.75482 167.19578,170.72351 167.125,170.6875 C 166.41172,170.29449 165.53142,170.05278 164.625,170.03125 z"
           transform="translate(-0.4419417,-0.8838835)" />
        <path
           style="fill:#e2e2e3;fill-opacity:1;fill-rule:evenodd;stroke:none;stroke-width:1px;stroke-linecap:butt;stroke-linejoin:miter;stroke-opacity:1"
           d="M 150.56304,186.29394 C 160.88857,196.25919 163.18921,193.91878 164.61324,193.90912 C 158.70691,192.04 147.14825,181.95122 150.56304,186.29394 z"
           id="path4304"
           sodipodi:nodetypes="ccc" />
      </g>
    </g>
  </g>
</svg>
